<svg width="25" height="25" viewBox="0 0 25 25" fill="none" xmlns="http://www.w3.org/2000/svg">
<path fill-rule="evenodd" clip-rule="evenodd" d="M24.9991 12.5002C24.9991 19.4038 19.4029 25.0004 12.4996 25.0004C5.59625 25.0004 0 19.4038 0 12.5002C0 5.59652 5.59625 0 12.4996 0C19.4029 0 24.9991 5.59652 24.9991 12.5002ZM15.5025 7.85588C17.2413 8.45299 18.5132 9.34709 18.2636 11.011C18.0824 12.2295 17.4045 12.8188 16.5037 13.0251C17.7395 13.666 18.1607 14.8822 17.7693 16.3529C17.0263 18.4694 15.2601 18.6476 12.9109 18.2052L12.3405 20.4803L10.9635 20.138L11.526 17.8934C11.169 17.8051 10.8042 17.7105 10.4283 17.6097L9.86341 19.8652L8.48796 19.5229L9.0576 17.2431L6.28394 16.546L6.96813 14.9751C6.96813 14.9751 7.98344 15.2431 7.96932 15.2236C8.35928 15.3197 8.53268 15.0665 8.60094 14.8985L10.1467 8.7234C10.1639 8.43188 10.0627 8.06455 9.50484 7.92544C9.52602 7.91059 8.50444 7.67768 8.50444 7.67768L8.87086 6.21227L11.6484 6.89769L12.2134 4.64369L13.5896 4.98601L13.0364 7.19546C13.4068 7.27909 13.7787 7.36428 14.1404 7.45416L14.6897 5.25877L16.0667 5.60109L15.5025 7.85588ZM12.2076 11.6159C13.1456 11.8646 15.1868 12.4058 15.5425 10.9868C15.9055 9.53511 13.9225 9.09665 12.9515 8.88198C12.8415 8.85765 12.7445 8.8362 12.6653 8.81647L11.9795 11.5566C12.0449 11.5727 12.1216 11.5931 12.2076 11.6159ZM11.1448 16.0277C12.2683 16.3236 14.7255 16.9709 15.1165 15.4073C15.5167 13.8087 13.1343 13.2762 11.9719 13.0164L11.9718 13.0164L11.9717 13.0164C11.8419 12.9873 11.7273 12.9617 11.6335 12.9384L10.8771 15.9583C10.954 15.9774 11.0441 16.0011 11.1448 16.0277Z" fill="#F7931A"/>
</svg>
