<svg width="26" height="23" viewBox="0 0 26 23" fill="none" xmlns="http://www.w3.org/2000/svg">
<path d="M25.9996 2.61C25.0961 3.11192 23.9919 3.41308 22.9881 3.51346C24.0923 2.81077 24.8954 1.70654 25.2969 0.401538C24.2931 1.00385 23.1888 1.50577 21.8838 1.80692C20.88 0.702692 19.575 0 18.0692 0C15.1581 0 12.7488 2.50961 12.7488 5.72192C12.7488 6.12346 12.7488 6.62538 12.8492 7.02692C8.43231 6.82615 4.51731 4.51731 1.90731 1.10423C1.40538 1.90731 1.20462 2.91115 1.20462 4.01538C1.20462 6.02307 2.10808 7.72961 3.51346 8.73346C2.61 8.73346 1.80692 8.4323 1.10423 8.03077V8.13115C1.10423 10.8415 2.91115 13.1504 5.32038 13.7527C4.91885 13.8531 4.41692 13.9535 3.915 13.9535C3.61385 13.9535 3.21231 13.9535 2.91115 13.8531C3.61385 16.1619 5.52115 17.7681 7.83 17.7681C6.02308 19.2738 3.71423 20.1773 1.305 20.1773C0.903461 20.1773 0.501923 20.1773 0 20.0769C2.30885 21.6831 5.11961 22.6869 8.13115 22.6869C17.8685 22.6869 23.1888 14.0538 23.1888 6.525C23.1888 6.32423 23.1888 6.02308 23.1888 5.82231C24.3935 4.81846 25.2969 3.81461 25.9996 2.61Z" fill="white"/>
</svg>
