<svg width="35" height="15" viewBox="0 0 35 15" fill="none" xmlns="http://www.w3.org/2000/svg">
<path fill-rule="evenodd" clip-rule="evenodd" d="M4.67239 2.69903C5.32872 2.7544 5.98505 2.36685 6.39526 1.87548C6.79863 1.37028 7.06526 0.69206 6.99689 0C6.41577 0.0276824 5.69791 0.387554 5.2877 0.892758C4.91168 1.32876 4.59035 2.03466 4.67239 2.69903ZM12.48 11.6128V0.823548H16.4795C18.5442 0.823548 19.9868 2.26303 19.9868 4.36689C19.9868 6.47076 18.5168 7.92408 16.4248 7.92408H14.1345V11.6128H12.48ZM6.99 2.83052C6.41179 2.79683 5.88419 3.00655 5.45804 3.17593C5.1838 3.28494 4.95157 3.37725 4.77489 3.37725C4.57662 3.37725 4.3348 3.28001 4.0633 3.17082L4.06329 3.17082C3.70753 3.02776 3.3008 2.86419 2.87427 2.87205C1.89661 2.88589 0.987321 3.44645 0.488237 4.33921C-0.537278 6.12473 0.221603 8.7684 1.21293 10.2217C1.69834 10.9415 2.27947 11.7304 3.04519 11.7027C3.38206 11.6899 3.62438 11.5858 3.87517 11.4781C4.16388 11.354 4.46382 11.2252 4.93213 11.2252C5.38422 11.2252 5.67103 11.3507 5.94636 11.4711C6.20814 11.5857 6.45954 11.6956 6.83276 11.6889C7.62582 11.675 8.1249 10.9691 8.61031 10.2494C9.13415 9.47692 9.36435 8.72302 9.39928 8.60861L9.40338 8.59538C9.40254 8.59453 9.39607 8.59153 9.38465 8.58624C9.20953 8.50509 7.87111 7.88484 7.85827 6.22161C7.84538 4.82558 8.91988 4.11826 9.08902 4.00691C9.09932 4.00013 9.10626 3.99556 9.1094 3.99318C8.42572 2.96893 7.35919 2.8582 6.99 2.83052ZM23.0087 11.6958C24.0479 11.6958 25.0118 11.1629 25.4494 10.3186H25.4836V11.6128H27.015V6.24238C27.015 4.68525 25.7844 3.68176 23.8906 3.68176C22.1336 3.68176 20.8346 4.69909 20.7867 6.09705H22.2771C22.4002 5.43267 23.0087 4.99667 23.8428 4.99667C24.8546 4.99667 25.422 5.47419 25.422 6.35311V6.94828L23.3573 7.07285C21.4362 7.1905 20.397 7.98637 20.397 9.37049C20.397 10.7685 21.4704 11.6958 23.0087 11.6958ZM23.453 10.4155C22.571 10.4155 22.0104 9.98643 22.0104 9.32897C22.0104 8.65075 22.5505 8.25628 23.5829 8.19399L25.4219 8.07635V8.68536C25.4219 9.69576 24.5742 10.4155 23.453 10.4155ZM32.0947 12.0349C31.4315 13.9242 30.6726 14.5471 29.0591 14.5471C28.9361 14.5471 28.5259 14.5333 28.4302 14.5056V13.2114C28.5327 13.2253 28.7857 13.2391 28.9156 13.2391C29.6471 13.2391 30.0573 12.9277 30.3103 12.118L30.4607 11.6405L27.6576 3.78558H29.3873L31.3358 10.1594H31.37L33.3184 3.78558H35.0003L32.0947 12.0349ZM14.1343 2.23535H16.0418C17.4775 2.23535 18.2979 3.01046 18.2979 4.37382C18.2979 5.73717 17.4775 6.5192 16.035 6.5192H14.1343V2.23535Z" fill="black"/>
</svg>
