<svg width="35" height="15" viewBox="0 0 35 15" fill="none" xmlns="http://www.w3.org/2000/svg">
<path fill-rule="evenodd" clip-rule="evenodd" d="M16.142 11.273V7.04374H18.3248C19.2193 7.04374 19.9743 6.74403 20.5897 6.15292L20.7374 6.00307C21.8617 4.77924 21.7878 2.87273 20.5897 1.74048C19.9907 1.14106 19.1701 0.816367 18.3248 0.833018H14.8208V11.273H16.142ZM16.1422 5.76162V2.11511H18.3582C18.8342 2.11511 19.2856 2.29826 19.6221 2.63128C20.3362 3.33061 20.3526 4.49616 19.6631 5.22047C19.3266 5.57846 18.8506 5.77827 18.3582 5.76162H16.1422ZM26.9002 4.68767C26.334 4.16317 25.5626 3.89676 24.5861 3.89676C23.3306 3.89676 22.3869 4.36298 21.7632 5.2871L22.9285 6.02805C23.3552 5.39533 23.9378 5.07896 24.6764 5.07896C25.1441 5.07896 25.5955 5.2538 25.9483 5.57016C26.293 5.86987 26.4899 6.30279 26.4899 6.76069V7.06872C25.9811 6.78566 25.3411 6.63581 24.5533 6.63581C23.6342 6.63581 22.8957 6.85227 22.3458 7.29351C21.796 7.73475 21.517 8.31753 21.517 9.05849C21.5006 9.73284 21.7878 10.3739 22.2966 10.8068C22.8136 11.273 23.4701 11.5061 24.2415 11.5061C25.1523 11.5061 25.8745 11.0982 26.4243 10.2823H26.4817V11.273H27.7455V6.86892C27.7455 5.9448 27.4664 5.21217 26.9002 4.68767ZM23.3144 9.95762C23.0436 9.75781 22.8794 9.43312 22.8794 9.08346C22.8794 8.69216 23.06 8.36747 23.4129 8.10939C23.774 7.8513 24.2254 7.7181 24.7589 7.7181C25.4976 7.70977 26.0721 7.87628 26.4824 8.20929C26.4824 8.77542 26.2608 9.26661 25.8259 9.68288C25.4319 10.0825 24.8984 10.3073 24.3403 10.3073C23.971 10.3156 23.6099 10.1907 23.3144 9.95762ZM30.5848 14.4117L34.9997 4.12987H33.5636L31.5203 9.2583H31.4957L29.4031 4.12987H27.967L30.8638 10.8151L29.2226 14.4117H30.5848Z" fill="#3C4043"/>
<path d="M11.581 6.1282C11.581 5.72026 11.5482 5.31232 11.4825 4.9127H5.91059V7.21883H9.10276C8.97146 7.95978 8.54474 8.62581 7.92108 9.04208V10.5406H9.82489C10.9409 9.49998 11.581 7.95978 11.581 6.1282Z" fill="#4285F4"/>
<path d="M5.91054 11.9891C7.50252 11.9891 8.84831 11.4563 9.82484 10.5405L7.92103 9.04194C7.38763 9.40825 6.70653 9.61639 5.91054 9.61639C4.36779 9.61639 3.06303 8.55906 2.59528 7.14375H0.634025V8.69227C1.63517 10.7153 3.67848 11.9891 5.91054 11.9891Z" fill="#34A853"/>
<path d="M2.59559 7.1437C2.34937 6.40274 2.34937 5.59518 2.59559 4.8459V3.30571H0.634021C-0.21134 4.99575 -0.21134 6.99384 0.634021 8.68389L2.59559 7.1437Z" fill="#FBBC04"/>
<path d="M5.91054 2.37309C6.75576 2.35644 7.56816 2.68113 8.17541 3.27223L9.86587 1.55721C8.79087 0.541511 7.37942 -0.0162884 5.91054 0.000362328C3.67848 0.000362328 1.63517 1.28247 0.634025 3.30553L2.59528 4.85405C3.06303 3.43041 4.36779 2.37309 5.91054 2.37309Z" fill="#EA4335"/>
</svg>
