<svg width="31" height="19" viewBox="0 0 31 19" fill="none" xmlns="http://www.w3.org/2000/svg">
<path fill-rule="evenodd" clip-rule="evenodd" d="M15.4827 16.7309C13.8428 18.146 11.7156 19.0003 9.39114 19.0003C4.20456 19.0003 0 14.7469 0 9.50016C0 4.25336 4.20456 0 9.39114 0C11.7156 0 13.8428 0.854301 15.4827 2.26946C17.1226 0.854301 19.2498 0 21.5742 0C26.7608 0 30.9654 4.25336 30.9654 9.50016C30.9654 14.7469 26.7608 19.0003 21.5742 19.0003C19.2498 19.0003 17.1226 18.146 15.4827 16.7309Z" fill="#ED0006"/>
<path fill-rule="evenodd" clip-rule="evenodd" d="M15.4828 16.7309C17.502 14.9883 18.7824 12.3955 18.7824 9.50016C18.7824 6.6048 17.502 4.01196 15.4828 2.26946C17.1227 0.854301 19.2499 0 21.5744 0C26.761 0 30.9655 4.25336 30.9655 9.50016C30.9655 14.7469 26.761 19.0003 21.5744 19.0003C19.2499 19.0003 17.1227 18.146 15.4828 16.7309Z" fill="#F9A000"/>
<path fill-rule="evenodd" clip-rule="evenodd" d="M15.4828 2.26965C17.5019 4.01215 18.7823 6.60498 18.7823 9.50031C18.7823 12.3956 17.5019 14.9885 15.4828 16.731C13.4636 14.9885 12.1832 12.3956 12.1832 9.50031C12.1832 6.60498 13.4636 4.01215 15.4828 2.26965Z" fill="#FF5E00"/>
</svg>
