<svg width="100" height="100" viewBox="0 0 100 100" fill="none" xmlns="http://www.w3.org/2000/svg">
<g clip-path="url(#clip0_0_60)">
<path d="M20.8333 37.5003V29.167H58.3333V62.5003" stroke="#333333" stroke-width="4" stroke-linecap="round" stroke-linejoin="round"/>
<path d="M29.1666 62.5003H20.8333V54.167" stroke="#333333" stroke-width="4" stroke-linecap="round" stroke-linejoin="round"/>
<path d="M58.3333 33.333H70.8333V45.833L79.1666 49.9997V62.4997H70.8333" stroke="#333333" stroke-width="4" stroke-linecap="round" stroke-linejoin="round"/>
<path d="M35.4167 68.75C38.8685 68.75 41.6667 65.9518 41.6667 62.5C41.6667 59.0482 38.8685 56.25 35.4167 56.25C31.9649 56.25 29.1667 59.0482 29.1667 62.5C29.1667 65.9518 31.9649 68.75 35.4167 68.75Z" stroke="#333333" stroke-width="4" stroke-linecap="round" stroke-linejoin="round"/>
<path d="M64.5833 68.75C68.0351 68.75 70.8333 65.9518 70.8333 62.5C70.8333 59.0482 68.0351 56.25 64.5833 56.25C61.1315 56.25 58.3333 59.0482 58.3333 62.5C58.3333 65.9518 61.1315 68.75 64.5833 68.75Z" stroke="#333333" stroke-width="4" stroke-linecap="round" stroke-linejoin="round"/>
<path d="M41.6667 62.5H58.3334" stroke="#333333" stroke-width="4" stroke-linecap="round" stroke-linejoin="round"/>
<path d="M16.6667 37.5H41.6667" stroke="#333333" stroke-width="4" stroke-linecap="round" stroke-linejoin="round"/>
<path d="M16.6667 45.833H33.3334" stroke="#333333" stroke-width="4" stroke-linecap="round" stroke-linejoin="round"/>
<path d="M16.6667 54.167H25" stroke="#333333" stroke-width="4" stroke-linecap="round" stroke-linejoin="round"/>
</g>
<defs>
<clipPath id="clip0_0_60">
<rect width="100" height="100" fill="white"/>
</clipPath>
</defs>
</svg>
