<svg width="24" height="24" viewBox="0 0 24 24" fill="none" xmlns="http://www.w3.org/2000/svg">
<g clip-path="url(#clip0_0_90)">
<path d="M21.2701 11.7179L21.3761 11.4988L21.2691 11.2803C19.5355 7.7397 15.9818 5.5002 12 5.5002C11.371 5.5002 10.764 5.57254 10.1763 5.67938L9.31666 4.81974C10.1776 4.61093 11.0748 4.5002 12 4.5002C16.7173 4.5002 20.7581 7.39135 22.4609 11.5006C21.8581 12.9614 20.9573 14.2597 19.8342 15.3373L19.1352 14.6383C19.9997 13.8147 20.7302 12.8344 21.2701 11.7179ZM15.99 11.4882V11.4902C15.99 11.4912 15.99 11.4921 15.99 11.4931L14.6969 10.2C14.403 9.58606 13.9041 9.08723 13.2902 8.79328L11.9971 7.5002C11.9981 7.5002 11.999 7.5002 12 7.5002C14.2057 7.5002 15.9989 9.28773 15.99 11.4882ZM3.42115 3.15865L20.443 20.1901L19.74 20.8931L16.6736 17.8266L16.4414 17.5945L16.1361 17.7152C14.8538 18.2224 13.4561 18.5002 12 18.5002C7.28261 18.5002 3.24178 15.6089 1.539 11.4995C2.28272 9.6926 3.48758 8.13017 4.9988 6.94344L5.44218 6.59527L5.04355 6.19664L2.71586 3.86895L3.42115 3.15865ZM9.86355 11.0166L9.01 10.1631V11.3638C9.00977 11.3658 9.00941 11.3688 9.00886 11.3732L9.00849 11.3761C9.00579 11.3976 9 11.4436 9 11.5002C9 13.1563 10.3439 14.5002 12 14.5002C12.1046 14.5002 12.1991 14.476 12.2344 14.467C12.237 14.4663 12.2393 14.4658 12.2413 14.4653L13.098 14.2511L12.4736 13.6266L9.86355 11.0166ZM6.46355 7.61664L6.15487 7.30796L5.80737 7.57218C4.54084 8.53516 3.4681 9.77441 2.73092 11.2804L2.6233 11.5002L2.73094 11.7201C4.46448 15.2607 8.01821 17.5002 12 17.5002C12.9994 17.5002 13.9638 17.3529 14.8816 17.1026L15.7128 16.8759L15.1036 16.2666L14.1236 15.2866L13.8848 15.0479L13.5741 15.1802C13.0944 15.3845 12.5609 15.5002 12 15.5002C9.79614 15.5002 8 13.7041 8 11.5002C8 10.9398 8.11551 10.4052 8.32129 9.9131L8.45066 9.60374L8.21355 9.36664L6.46355 7.61664Z" fill="#999999" stroke="#999999"/>
</g>
<defs>
<clipPath id="clip0_0_90">
<rect width="24" height="24" fill="white"/>
</clipPath>
</defs>
</svg>
