<svg width="100" height="100" viewBox="0 0 100 100" fill="none" xmlns="http://www.w3.org/2000/svg">
<path d="M45.8333 87.5V81.25H81.25V49.5833C81.25 45.5556 80.382 41.684 78.6459 37.9688C76.9097 34.2535 74.5834 30.9722 71.6667 28.125C68.75 25.2778 65.4167 23.0035 61.6667 21.3021C57.9167 19.6007 54.0278 18.75 50 18.75C45.9722 18.75 42.0833 19.6007 38.3333 21.3021C34.5833 23.0035 31.25 25.2778 28.3333 28.125C25.4167 30.9722 23.0903 34.2535 21.3542 37.9688C19.6181 41.684 18.75 45.5556 18.75 49.5833V74.0625H8.33334V50.9375H12.5L12.8125 45.625C13.4375 40.5556 14.8785 35.9722 17.1354 31.875C19.3924 27.7778 22.2049 24.3056 25.5729 21.4583C28.941 18.6111 32.7257 16.4062 36.9271 14.8438C41.1285 13.2812 45.4861 12.5 50 12.5C54.5834 12.5 58.9757 13.2812 63.1771 14.8438C67.3785 16.4062 71.1459 18.6285 74.4792 21.5104C77.8125 24.3924 80.6077 27.8646 82.8646 31.9271C85.1216 35.9896 86.5625 40.5208 87.1875 45.5208L87.5 50.9375H91.6667V74.0625H87.5V87.5H45.8333ZM37.5 57.2917C36.6667 57.2917 35.9375 56.9792 35.3125 56.3542C34.6875 55.7292 34.375 55 34.375 54.1667C34.375 53.2639 34.6875 52.5174 35.3125 51.9271C35.9375 51.3368 36.6667 51.0417 37.5 51.0417C38.4028 51.0417 39.1493 51.3368 39.7396 51.9271C40.3299 52.5174 40.625 53.2639 40.625 54.1667C40.625 55 40.3299 55.7292 39.7396 56.3542C39.1493 56.9792 38.4028 57.2917 37.5 57.2917ZM62.5 57.2917C61.6667 57.2917 60.9375 56.9792 60.3125 56.3542C59.6875 55.7292 59.375 55 59.375 54.1667C59.375 53.2639 59.6875 52.5174 60.3125 51.9271C60.9375 51.3368 61.6667 51.0417 62.5 51.0417C63.4028 51.0417 64.1493 51.3368 64.7396 51.9271C65.3299 52.5174 65.625 53.2639 65.625 54.1667C65.625 55 65.3299 55.7292 64.7396 56.3542C64.1493 56.9792 63.4028 57.2917 62.5 57.2917ZM25.1042 51.875C24.8264 47.7778 25.3993 44.0625 26.8229 40.7292C28.2465 37.3958 30.1563 34.566 32.5521 32.2396C34.9479 29.9132 37.7083 28.125 40.8333 26.875C43.9583 25.625 47.0833 25 50.2084 25C56.5278 25 61.8403 26.9965 66.1459 30.9896C70.4514 34.9826 73.0903 39.9653 74.0625 45.9375C67.5347 45.8681 61.7882 44.1146 56.8229 40.6771C51.8577 37.2396 48.0208 32.7778 45.3125 27.2917C44.2014 32.9167 41.8577 37.8993 38.2813 42.2396C34.7049 46.5799 30.3125 49.7917 25.1042 51.875Z" fill="#333333"/>
</svg>
