<svg width="34" height="11" viewBox="0 0 34 11" fill="none" xmlns="http://www.w3.org/2000/svg">
<path fill-rule="evenodd" clip-rule="evenodd" d="M8.50046 10.7653H5.55794L3.3514 2.34832C3.24667 1.96114 3.0243 1.61885 2.69719 1.45753C1.88086 1.05211 0.981319 0.72946 0 0.566733V0.24268H4.74017C5.39438 0.24268 5.88504 0.72946 5.96682 1.2948L7.11169 7.36623L10.0528 0.24268H12.9135L8.50046 10.7653ZM14.5491 10.7653H11.7701L14.0584 0.24268H16.8374L14.5491 10.7653ZM20.4327 3.15776C20.5144 2.59102 21.0051 2.26696 21.5775 2.26696C22.4771 2.1856 23.457 2.34833 24.2747 2.75234L24.7654 0.48678C23.9476 0.162728 23.0481 0 22.2317 0C19.5346 0 17.5719 1.45754 17.5719 3.48041C17.5719 5.01931 18.9621 5.82733 19.9434 6.31411C21.0051 6.79949 21.414 7.12354 21.3322 7.60892C21.3322 8.33699 20.5144 8.66104 19.6981 8.66104C18.7168 8.66104 17.7355 8.41835 16.8374 8.01293L16.3467 10.2799C17.328 10.6839 18.3897 10.8466 19.371 10.8466C22.3953 10.9266 24.2747 9.47047 24.2747 7.28487C24.2747 4.53253 20.4327 4.3712 20.4327 3.15776ZM34.0004 10.7653L31.7939 0.24268H29.4238C28.9331 0.24268 28.4425 0.566733 28.2789 1.05211L24.1929 10.7653H27.0537L27.6247 9.22777H31.1397L31.4668 10.7653H34.0004ZM29.8327 3.0764L30.649 7.04218H28.3607L29.8327 3.0764Z" fill="#172B85"/>
</svg>
