<svg width="100" height="100" viewBox="0 0 100 100" fill="none" xmlns="http://www.w3.org/2000/svg">
<g clip-path="url(#clip0_0_157)">
<path d="M49.375 95.8334L9.68748 56.1458L41.25 24.5833L56.4583 39.7917L60.8333 35.4167L35.8333 10.4167L4.27082 41.9792L11.875 49.5833L7.49999 53.9583L-4.58334 41.875L35.7291 1.5625L48.6458 14.4792L61.5625 1.5625L102.604 42.6042L49.375 95.8334ZM49.4791 87.0834L93.75 42.6042L61.5625 10.4167L53.125 18.8542L69.6875 35.4167L56.4583 48.6458L41.25 33.4375L18.5416 56.1458L22.9166 60.5208L39.8958 43.5417L44.375 48.0208L27.3958 65L31.875 69.4792L48.8541 52.5L53.2291 56.875L36.25 73.8542L40.5208 78.125L57.5 61.1458L61.9791 65.625L45 82.6042L49.4791 87.0834Z" fill="#333333"/>
</g>
<defs>
<clipPath id="clip0_0_157">
<rect width="100" height="100" fill="white"/>
</clipPath>
</defs>
</svg>
