<svg width="32" height="31" viewBox="0 0 32 31" fill="none" xmlns="http://www.w3.org/2000/svg">
<g clip-path="url(#clip0_0_86)">
<path d="M15.9993 2.53656C8.63934 2.53656 2.66601 8.21922 2.66601 15.2211C2.66601 22.2229 8.63934 27.9056 15.9993 27.9056C23.3593 27.9056 29.3327 22.2229 29.3327 15.2211C29.3327 8.21922 23.3593 2.53656 15.9993 2.53656ZM9.42601 23.1869C9.99934 22.0453 13.4927 20.9291 15.9993 20.9291C18.506 20.9291 22.0127 22.0453 22.5727 23.1869C20.7593 24.5569 18.4793 25.3687 15.9993 25.3687C13.5193 25.3687 11.2393 24.5569 9.42601 23.1869ZM24.4793 21.3477C22.5727 19.1406 17.946 18.3922 15.9993 18.3922C14.0527 18.3922 9.42601 19.1406 7.51934 21.3477C6.15934 19.648 5.33267 17.5297 5.33267 15.2211C5.33267 9.6272 10.1193 5.07346 15.9993 5.07346C21.8793 5.07346 26.666 9.6272 26.666 15.2211C26.666 17.5297 25.8393 19.648 24.4793 21.3477ZM15.9993 7.61037C13.4127 7.61037 11.3327 9.58915 11.3327 12.0499C11.3327 14.5107 13.4127 16.4895 15.9993 16.4895C18.586 16.4895 20.666 14.5107 20.666 12.0499C20.666 9.58915 18.586 7.61037 15.9993 7.61037ZM15.9993 13.9526C14.8927 13.9526 13.9993 13.1028 13.9993 12.0499C13.9993 10.9971 14.8927 10.1473 15.9993 10.1473C17.106 10.1473 17.9993 10.9971 17.9993 12.0499C17.9993 13.1028 17.106 13.9526 15.9993 13.9526Z" fill="#063D32"/>
</g>
<defs>
<clipPath id="clip0_0_86">
<rect width="31.625" height="30.0861" fill="white" transform="scale(1.01186)"/>
</clipPath>
</defs>
</svg>
