<svg width="48" height="48" viewBox="0 0 48 48" fill="none" xmlns="http://www.w3.org/2000/svg">
<path d="M24 0C10.7452 0 0 10.7452 0 24C0 37.2568 10.7452 48 24 48C37.2548 48 48 37.2568 48 24C48 10.7452 37.2538 0 24 0ZM25.3762 9.73255C26.4648 8.45482 28.3059 7.50749 29.8243 7.44609C30.0183 9.216 29.3049 10.9908 28.2523 12.2675C27.1958 13.5433 25.4678 14.5364 23.771 14.4049C23.5429 12.672 24.3976 10.8631 25.3762 9.73255ZM34.0181 33.9021C32.7579 35.7432 31.4519 37.5774 29.3945 37.6145C27.3712 37.6525 26.7202 36.4157 24.4093 36.4157C22.0966 36.4157 21.3734 37.5784 19.4583 37.6534C17.473 37.7275 15.9604 35.6681 14.6904 33.8329C12.0931 30.0826 10.1117 23.2339 12.7763 18.6104C14.0959 16.3122 16.4603 14.862 19.0246 14.822C20.9777 14.7859 22.8188 16.1377 24.0097 16.1377C25.2037 16.1377 27.4414 14.514 29.7951 14.7538C30.7794 14.7937 33.5435 15.1495 35.3192 17.7468C35.1769 17.8365 32.0182 19.6737 32.0562 23.499C32.0981 28.069 36.0648 29.5865 36.1106 29.6099C36.0736 29.7132 35.4742 31.7745 34.0181 33.9021Z" fill="black"/>
</svg>
