<svg width="100" height="100" viewBox="0 0 100 100" fill="none" xmlns="http://www.w3.org/2000/svg">
<g clip-path="url(#clip0_0_77)">
<path d="M74 36H70V28C70 16.96 61.04 8 50 8C38.96 8 30 16.96 30 28V36H26C21.6 36 18 39.6 18 44V84C18 88.4 21.6 92 26 92H74C78.4 92 82 88.4 82 84V44C82 39.6 78.4 36 74 36ZM38 28C38 21.36 43.36 16 50 16C56.64 16 62 21.36 62 28V36H38V28ZM74 84H26V44H74V84ZM50 72C54.4 72 58 68.4 58 64C58 59.6 54.4 56 50 56C45.6 56 42 59.6 42 64C42 68.4 45.6 72 50 72Z" fill="#333333"/>
</g>
<defs>
<clipPath id="clip0_0_77">
<rect width="100" height="100" fill="white"/>
</clipPath>
</defs>
</svg>
