<svg width="28" height="24" viewBox="0 0 28 24" fill="none" xmlns="http://www.w3.org/2000/svg">
<path fill-rule="evenodd" clip-rule="evenodd" d="M3.30718 16.6564H1.16356C1.01687 16.6564 0.892113 16.7631 0.869239 16.9078L0.00224871 22.4047C-0.0149834 22.5132 0.0690168 22.611 0.179039 22.611H1.20242C1.34911 22.611 1.47387 22.5044 1.49675 22.3593L1.73058 20.8767C1.75314 20.7315 1.8782 20.6251 2.02459 20.6251H2.70319C4.11527 20.6251 4.93017 19.9417 5.1431 18.5877C5.23898 17.9953 5.14716 17.5298 4.86968 17.2037C4.56507 16.8459 4.02461 16.6564 3.30718 16.6564ZM3.55449 18.6641C3.43729 19.4333 2.84957 19.4333 2.2813 19.4333H1.95782L2.18476 17.9967C2.19823 17.91 2.27346 17.846 2.36123 17.846H2.50948C2.89658 17.846 3.26178 17.846 3.45049 18.0666C3.56291 18.1983 3.59743 18.3939 3.55449 18.6641ZM9.71499 18.6394H8.68846C8.60099 18.6394 8.52542 18.7034 8.51193 18.7903L8.46653 19.0774L8.39473 18.9734C8.17251 18.6508 7.67701 18.543 7.18239 18.543C6.04794 18.543 5.07913 19.4021 4.89042 20.6074C4.79237 21.2085 4.93176 21.7833 5.27278 22.1842C5.58566 22.5528 6.03329 22.7064 6.56577 22.7064C7.47974 22.7064 7.9867 22.1187 7.9867 22.1187L7.94086 22.404C7.9236 22.5131 8.00759 22.6108 8.11695 22.6108H9.04166C9.18874 22.6108 9.31276 22.5042 9.33597 22.3592L9.89079 18.8457C9.90834 18.7376 9.82465 18.6394 9.71499 18.6394ZM8.28405 20.6374C8.18498 21.2238 7.71951 21.6175 7.12596 21.6175C6.82788 21.6175 6.58956 21.5219 6.43667 21.3407C6.28495 21.1609 6.22722 20.9047 6.27552 20.6196C6.36807 20.038 6.84137 19.6316 7.42593 19.6316C7.71734 19.6316 7.95435 19.7284 8.11043 19.9111C8.26679 20.0958 8.32888 20.3534 8.28405 20.6374ZM14.1505 18.6393H15.1821C15.3266 18.6393 15.4109 18.8013 15.3288 18.9198L11.8979 23.8722C11.8423 23.9524 11.7508 24.0001 11.653 24.0001H10.6227C10.4777 24.0001 10.393 23.8368 10.4769 23.718L11.5453 22.21L10.4091 18.8756C10.3698 18.7597 10.4553 18.6393 10.5786 18.6393H11.5923C11.724 18.6393 11.8401 18.7258 11.8781 18.8518L12.4811 20.8657L13.9039 18.77C13.9596 18.6882 14.0522 18.6393 14.1505 18.6393Z" fill="#253B80"/>
<path fill-rule="evenodd" clip-rule="evenodd" d="M25.3353 22.405L26.2151 16.8076C26.2286 16.7207 26.3039 16.6567 26.3913 16.6564H27.3817C27.4911 16.6564 27.5751 16.7545 27.5578 16.863L26.6903 22.3596C26.6676 22.5046 26.5429 22.6113 26.396 22.6113H25.5114C25.4021 22.6113 25.3181 22.5135 25.3353 22.405ZM18.5978 16.6567H16.4538C16.3075 16.6567 16.1827 16.7633 16.1598 16.9081L15.2928 22.405C15.2756 22.5135 15.3595 22.6113 15.4691 22.6113H16.5691C16.6714 22.6113 16.7589 22.5367 16.7748 22.4352L17.0208 20.877C17.0435 20.7318 17.1685 20.6254 17.3148 20.6254H17.9931C19.4055 20.6254 20.2202 19.942 20.4333 18.588C20.5295 17.9956 20.4371 17.5301 20.1597 17.204C19.8553 16.8462 19.3153 16.6567 18.5978 16.6567ZM18.8451 18.6644C18.7282 19.4336 18.1405 19.4336 17.5719 19.4336H17.2487L17.476 17.997C17.4895 17.9103 17.564 17.8463 17.6521 17.8463H17.8003C18.1872 17.8463 18.5527 17.8463 18.7413 18.0669C18.8538 18.1986 18.8881 18.3942 18.8451 18.6644ZM25.0051 18.6397H23.9793C23.8911 18.6397 23.8162 18.7037 23.803 18.7906L23.7576 19.0777L23.6855 18.9736C23.4633 18.6511 22.9681 18.5433 22.4735 18.5433C21.339 18.5433 20.3705 19.4024 20.1818 20.6077C20.084 21.2088 20.2228 21.7836 20.5639 22.1845C20.8773 22.5531 21.3244 22.7067 21.8569 22.7067C22.7708 22.7067 23.2776 22.1189 23.2776 22.1189L23.2319 22.4043C23.2147 22.5133 23.2987 22.6111 23.4088 22.6111H24.333C24.4794 22.6111 24.6041 22.5045 24.6271 22.3594L25.1822 18.846C25.1991 18.7379 25.1152 18.6397 25.0051 18.6397ZM23.5743 20.6377C23.4758 21.2241 23.0097 21.6178 22.416 21.6178C22.1185 21.6178 21.8798 21.5222 21.7267 21.341C21.575 21.1612 21.518 20.905 21.5657 20.6198C21.6587 20.0383 22.1314 19.6319 22.716 19.6319C23.0076 19.6319 23.2444 19.7286 23.4006 19.9114C23.5576 20.0961 23.6197 20.3537 23.5743 20.6377Z" fill="#179BD7"/>
<path d="M11.2404 14.6908L11.504 13.0169L10.9169 13.0032H8.11382L10.0619 0.651172C10.0678 0.61388 10.0875 0.579111 10.1163 0.554423C10.145 0.529735 10.1818 0.516129 10.2201 0.516129H14.9466C16.5158 0.516129 17.5986 0.842655 18.164 1.48713C18.429 1.78948 18.5979 2.10542 18.6795 2.45311C18.7651 2.81794 18.7667 3.25381 18.683 3.78542L18.6769 3.82422V4.16485L18.9421 4.31502C19.1653 4.43343 19.3426 4.56898 19.4786 4.72418C19.7055 4.98268 19.8521 5.31122 19.9141 5.70073C19.978 6.10133 19.9569 6.57802 19.8521 7.1177C19.7312 7.7385 19.5356 8.27919 19.2716 8.72161C19.0287 9.12926 18.7193 9.4673 18.352 9.72941C18.0013 9.97832 17.5845 10.1673 17.1134 10.2883C16.6568 10.4071 16.1363 10.4671 15.5654 10.4671H15.1976C14.9346 10.4671 14.679 10.5619 14.4786 10.7317C14.2775 10.9051 14.1444 11.1418 14.1036 11.4008L14.0759 11.5516L13.6103 14.5018L13.5891 14.6101C13.5836 14.6445 13.574 14.6616 13.5599 14.6732C13.5473 14.6837 13.5292 14.6908 13.5115 14.6908H11.2404Z" fill="#253B80"/>
<path d="M19.193 3.86312C19.1789 3.95331 19.1628 4.04552 19.1447 4.14025C18.5212 7.34052 16.3888 8.44607 13.6652 8.44607H12.2785C11.9455 8.44607 11.6648 8.68793 11.6129 9.01647L10.9028 13.5194L10.7018 14.7957C10.668 15.0114 10.8344 15.2059 11.0519 15.2059H13.5116C13.8028 15.2059 14.0502 14.9942 14.096 14.707L14.1202 14.582L14.5834 11.6433L14.6131 11.4821C14.6584 11.1939 14.9063 10.9823 15.1975 10.9823H15.5654C17.9483 10.9823 19.8138 10.0148 20.359 7.21505C20.5868 6.04549 20.4688 5.06895 19.8662 4.38213C19.6838 4.17502 19.4575 4.00319 19.193 3.86312Z" fill="#179BD7"/>
<path d="M18.541 3.6031C18.4459 3.57538 18.3475 3.55018 18.2467 3.52751C18.1455 3.50535 18.0416 3.48569 17.9348 3.46856C17.5609 3.40809 17.1513 3.37937 16.7123 3.37937H13.0077C12.9165 3.37937 12.8299 3.40002 12.7523 3.43732C12.5814 3.51945 12.4545 3.68121 12.4237 3.87923L11.6355 8.87086L11.6129 9.01647C11.6648 8.68793 11.9455 8.44606 12.2785 8.44606H13.6652C16.3889 8.44606 18.5214 7.34001 19.1447 4.14025C19.1633 4.04552 19.1789 3.95331 19.193 3.86312C19.0353 3.77947 18.8645 3.70791 18.6806 3.64693C18.6353 3.63182 18.5884 3.61721 18.541 3.6031Z" fill="#222D65"/>
<path d="M12.4235 3.87951C12.4542 3.68147 12.5813 3.51973 12.752 3.43809C12.8302 3.4008 12.9163 3.38014 13.0074 3.38014H16.7122C17.1511 3.38014 17.5608 3.40886 17.9346 3.46933C18.0415 3.48647 18.1453 3.50612 18.2466 3.52828C18.3474 3.55097 18.4456 3.57617 18.5409 3.60387C18.5882 3.61798 18.635 3.63259 18.6809 3.64721C18.8648 3.70818 19.0357 3.78024 19.1933 3.86338C19.3788 2.68073 19.1919 1.87551 18.5525 1.14636C17.8475 0.343657 16.5751 0 14.9471 0H10.2204C9.88781 0 9.60424 0.241859 9.55274 0.570909L7.5841 13.0499C7.54523 13.2968 7.73568 13.5196 7.98459 13.5196H10.9027L11.6354 8.87112L12.4235 3.87951Z" fill="#253B80"/>
</svg>
