<svg width="23" height="23" viewBox="0 0 23 23" fill="none" xmlns="http://www.w3.org/2000/svg">
<path fill-rule="evenodd" clip-rule="evenodd" d="M22.9988 11.4999C22.9988 17.8512 17.8503 22.9999 11.4994 22.9999C5.14845 22.9999 0 17.8512 0 11.4999C0 5.1487 5.14845 0 11.4994 0C17.8503 0 22.9988 5.1487 22.9988 11.4999ZM14.2621 7.22731C15.8617 7.77664 17.0318 8.5992 16.8022 10.13C16.6355 11.2509 16.0118 11.7931 15.1831 11.9829C16.32 12.5725 16.7075 13.6914 16.3475 15.0445C15.6639 16.9916 14.039 17.1555 11.8778 16.7485L11.353 18.8416L10.0862 18.5267L10.6038 16.4616C10.2753 16.3804 9.93966 16.2934 9.5939 16.2006L9.07417 18.2757L7.80878 17.9608L8.33284 15.8634L5.78112 15.2221L6.41057 13.7768C6.41057 13.7768 7.34463 14.0235 7.33164 14.0055C7.6904 14.0939 7.84992 13.861 7.91272 13.7064L9.33476 8.02542C9.35064 7.75723 9.25752 7.41929 8.74429 7.2913C8.76378 7.27764 7.82394 7.06338 7.82394 7.06338L8.16104 5.71522L10.7164 6.3458L11.2361 4.27215L12.5022 4.58708L11.9933 6.61974C12.334 6.69668 12.6762 6.77505 13.0089 6.85774L13.5142 4.83802L14.7811 5.15295L14.2621 7.22731ZM11.2308 10.6865C12.0938 10.9152 13.9716 11.4131 14.2989 10.1077C14.6328 8.77216 12.8084 8.36879 11.9152 8.17129L11.9151 8.17127C11.8139 8.1489 11.7247 8.12917 11.6519 8.11102L11.021 10.6319C11.0811 10.6467 11.1517 10.6655 11.2308 10.6864L11.2308 10.6865ZM10.2531 14.7451C11.2867 15.0174 13.5472 15.6129 13.9069 14.1745C14.2751 12.7037 12.0833 12.2139 11.0139 11.9748L11.0139 11.9748C10.8944 11.9481 10.789 11.9246 10.7026 11.9031L10.0068 14.6814C10.0774 14.6989 10.1601 14.7206 10.2526 14.745L10.2528 14.7451L10.2531 14.7451L10.2531 14.7451Z" fill="#F7931A"/>
</svg>
