<svg width="24" height="24" viewBox="0 0 24 24" fill="none" xmlns="http://www.w3.org/2000/svg">
<g clip-path="url(#clip0_1452_31091)">
<path d="M17.4129 8.93872L10.5 16.48L6.58712 12.2114L8.06143 10.86L10.5 13.5203L15.9386 7.58727L17.4129 8.93872Z" fill="#31B647"/>
<path fill-rule="evenodd" clip-rule="evenodd" d="M12 0.585938L14.4142 3.00015H22V12.8012C22 16.3579 19.9054 19.581 16.6552 21.0255L12 23.0945L7.34475 21.0255C4.0946 19.581 2 16.3579 2 12.8012V3.00015H9.58579L12 0.585938ZM12 3.41436L10.4142 5.00015H4V12.8012C4 15.5675 5.62914 18.0743 8.15703 19.1978L12 20.9058L15.843 19.1978C18.3709 18.0743 20 15.5675 20 12.8012V5.00015H13.5858L12 3.41436Z" fill="#31B647"/>
</g>
<defs>
<clipPath id="clip0_1452_31091">
<rect width="24" height="24" fill="white"/>
</clipPath>
</defs>
</svg>
