<svg width="100" height="100" viewBox="0 0 100 100" fill="none" xmlns="http://www.w3.org/2000/svg">
<path d="M49.2658 20C38.7852 20 30.2318 28.3036 30.2318 38.5558C30.2318 43.6236 32.3255 48.2061 35.7041 51.5537L30.0367 74.09C29.9792 74.3158 29.9892 74.5535 30.0656 74.7736C30.142 74.9937 30.2813 75.1865 30.4662 75.3281C30.6512 75.4698 30.8737 75.554 31.1061 75.5703C31.3385 75.5867 31.5706 75.5344 31.7735 75.42L38.7828 71.48L42.8942 78.4131C43.0141 78.6166 43.1918 78.7799 43.4048 78.882C43.6178 78.9841 43.8564 79.0205 44.0901 78.9866C44.3239 78.9527 44.5422 78.8499 44.7174 78.6914C44.8925 78.5329 45.0165 78.3259 45.0736 78.0967L49.1492 61.9058L53.2249 78.0967C53.282 78.3259 53.406 78.5329 53.5811 78.6914C53.7563 78.8499 53.9746 78.9527 54.2084 78.9866C54.4421 79.0205 54.6807 78.9841 54.8937 78.882C55.1067 78.7799 55.2844 78.6166 55.4043 78.4131L59.5157 71.48L66.525 75.42C66.7279 75.5344 66.96 75.5867 67.1924 75.5703C67.4248 75.554 67.6473 75.4698 67.8322 75.3281C68.0172 75.1865 68.1565 74.9937 68.2329 74.7736C68.3092 74.5535 68.3193 74.3158 68.2618 74.09L62.6396 51.7393C66.13 48.3774 68.2999 43.7164 68.2999 38.5558C68.2999 28.3036 59.7465 20 49.2658 20ZM49.2658 22.3793C58.495 22.3793 65.9206 29.6265 65.9206 38.5558C65.9206 47.4852 58.495 54.7324 49.2658 54.7324C40.0343 54.7324 32.611 47.4852 32.611 38.5534C32.611 29.6265 40.0343 22.3793 49.2658 22.3793ZM49.1944 31.0516C49.0127 31.0618 48.8357 31.1118 48.6766 31.1979C48.5176 31.284 48.3806 31.404 48.2761 31.5489L45.8183 34.9417L41.7331 36.1742C41.5494 36.2301 41.3822 36.3278 41.2453 36.4594C41.1085 36.5909 41.0059 36.7524 40.9463 36.9303C40.8867 37.1082 40.8717 37.2974 40.9026 37.4821C40.9336 37.6668 41.0095 37.8416 41.124 37.9919L43.6793 41.3229L43.6199 45.4771C43.6181 45.6353 43.6493 45.7922 43.7116 45.9384C43.7738 46.0845 43.8658 46.2169 43.9821 46.3276C44.0983 46.4383 44.2364 46.525 44.388 46.5825C44.5396 46.6399 44.7016 46.667 44.8642 46.6619C44.985 46.6579 45.1045 46.6363 45.2187 46.5977L49.2635 45.2582L53.3082 46.5977C53.4908 46.6588 53.6858 46.6764 53.8769 46.649C54.068 46.6216 54.2495 46.55 54.4062 46.4402C54.5628 46.3303 54.6901 46.1856 54.7773 46.018C54.8644 45.8504 54.9089 45.6649 54.907 45.4771L54.8499 41.3229L57.4076 37.9919C57.5221 37.8413 57.5979 37.6661 57.6285 37.4812C57.6591 37.2962 57.6437 37.1069 57.5836 36.9289C57.5235 36.7509 57.4204 36.5895 57.283 36.4582C57.1456 36.3269 56.9778 36.2295 56.7938 36.1742L52.7134 34.9417L50.2508 31.5465C50.1334 31.383 49.9749 31.2512 49.7905 31.1638C49.606 31.0764 49.4017 31.0361 49.1968 31.0469L49.1944 31.0516ZM49.2658 34.2565L50.9789 36.6167C51.1317 36.8292 51.3526 36.9865 51.607 37.064L54.4526 37.9229L52.6682 40.238C52.5089 40.4435 52.4237 40.6944 52.4255 40.9517L52.4731 43.8425L49.656 42.9146C49.4031 42.8305 49.1286 42.8305 48.8756 42.9146L46.0586 43.8425L46.1062 40.9541C46.1072 40.6954 46.0202 40.4436 45.8587 40.238L44.0743 37.9229L46.9223 37.064C47.175 36.9856 47.3941 36.8284 47.5456 36.6167L49.2658 34.2565ZM37.7264 53.2763C40.6901 55.4857 44.2285 56.7927 47.9168 57.0403L43.47 74.7134L40.2342 69.2673C40.0762 69.0008 39.8205 68.8065 39.5215 68.7256C39.2224 68.6448 38.9037 68.6837 38.6329 68.8342L33.0179 71.9915L37.7288 53.2763H37.7264ZM60.6077 53.419L65.283 71.9915L59.6656 68.8342C59.3946 68.683 59.0752 68.6436 58.7757 68.7245C58.4761 68.8054 58.22 69.0002 58.0619 69.2673L54.8261 74.7158L50.3865 57.0545C54.0718 56.8506 57.6204 55.5893 60.6077 53.4214V53.419Z" fill="#333333"/>
</svg>
