<svg width="47" height="48" viewBox="0 0 47 48" fill="none" xmlns="http://www.w3.org/2000/svg">
<path fill-rule="evenodd" clip-rule="evenodd" d="M9.83212 23.9992C9.83212 22.4403 10.0909 20.9456 10.5533 19.5438L2.4645 13.3672C0.888 16.5678 0 20.1746 0 23.9992C0 27.8208 0.88725 31.4249 2.46112 34.6237L10.5454 28.4351C10.0875 27.0397 9.83212 25.5506 9.83212 23.9992Z" fill="#FBBC05"/>
<path fill-rule="evenodd" clip-rule="evenodd" d="M24.0325 9.81825C27.4191 9.81825 30.478 11.0182 32.8814 12.9818L39.8729 6C35.6125 2.29087 30.1503 0 24.0325 0C14.5345 0 6.37152 5.4315 2.46289 13.368L10.5513 19.5446C12.415 13.8874 17.7276 9.81825 24.0325 9.81825Z" fill="#EA4335"/>
<path fill-rule="evenodd" clip-rule="evenodd" d="M24.0325 38.1815C17.728 38.1815 12.4154 34.1123 10.5516 28.4551L2.46289 34.6306C6.37152 42.5682 14.5345 47.9997 24.0325 47.9997C29.8945 47.9997 35.4914 45.9181 39.6918 42.0181L32.014 36.0826C29.8476 37.4472 27.1195 38.1815 24.0325 38.1815Z" fill="#34A853"/>
<path fill-rule="evenodd" clip-rule="evenodd" d="M46.9746 23.9992C46.9746 22.581 46.756 21.0536 46.4282 19.6357H24.0332V28.9084H36.9242C36.2796 32.07 34.5253 34.5004 32.0147 36.0821L39.6925 42.0176C44.1047 37.9226 46.9746 31.8221 46.9746 23.9992Z" fill="#4285F4"/>
</svg>
